<?xml version="1.0" encoding="utf-8"?>
<!-- Generator: Adobe Illustrator 17.0.0, SVG Export Plug-In . SVG Version: 6.00 Build 0)  -->
<!DOCTYPE svg PUBLIC "-//W3C//DTD SVG 1.1//EN" "http://www.w3.org/Graphics/SVG/1.1/DTD/svg11.dtd">
<svg version="1.1" id="Layer_1" xmlns="http://www.w3.org/2000/svg" xmlns:xlink="http://www.w3.org/1999/xlink" x="0px" y="0px"
	 width="30.206px" height="30.992px" viewBox="0 0 30.206 30.992" enable-background="new 0 0 30.206 30.992" xml:space="preserve">
<g>
	<path fill="#FFFFFF" d="M15.849,30.992c-0.256,0-0.512-0.098-0.707-0.293L0.293,15.849c-0.391-0.391-0.391-1.023,0-1.414
		L14.435,0.293c0.391-0.391,1.023-0.391,1.414,0s0.391,1.023,0,1.414L2.414,15.142l14.142,14.143c0.391,0.391,0.391,1.023,0,1.414
		C16.361,30.894,16.105,30.992,15.849,30.992z"/>
</g>
<g>
	<path fill="#FFFFFF" d="M29.206,16.496h-26c-0.552,0-1-0.448-1-1s0.448-1,1-1h26c0.553,0,1,0.448,1,1S29.758,16.496,29.206,16.496z
		"/>
</g>
</svg>
