<?xml version="1.0" encoding="utf-8"?>
<!-- Generator: Adobe Illustrator 17.0.0, SVG Export Plug-In . SVG Version: 6.00 Build 0)  -->
<!DOCTYPE svg PUBLIC "-//W3C//DTD SVG 1.1//EN" "http://www.w3.org/Graphics/SVG/1.1/DTD/svg11.dtd">
<svg version="1.1" id="Layer_1" xmlns="http://www.w3.org/2000/svg" xmlns:xlink="http://www.w3.org/1999/xlink" x="0px" y="0px"
	 width="105px" height="79.63px" viewBox="0 0 105 79.63" enable-background="new 0 0 105 79.63" xml:space="preserve">
<path fill="#BDFF2A" d="M105,10.01v41.98c0,0.58-0.05,1.15-0.15,1.71c-3.41-8.67-11.87-14.82-21.74-14.82
	c-12.8,0-23.24,10.35-23.37,23.12H45.35c-0.13-12.77-10.57-23.12-23.37-23.12c-9.93,0-18.43,6.23-21.8,14.98
	C0.06,53.25,0,52.63,0,51.99V10.01C0,4.48,4.48,0,10.01,0h84.98C100.52,0,105,4.48,105,10.01z"/>
<path fill="#BDFF2A" d="M39.36,62.26c0,9.58-7.8,17.37-17.38,17.37c-9.58,0-17.37-7.79-17.37-17.37c0-0.6,0.03-1.2,0.09-1.78
	c0.9-8.75,8.3-15.6,17.28-15.6c9.49,0,17.24,7.66,17.37,17.12C39.36,62.09,39.36,62.17,39.36,62.26z"/>
<path fill="#BDFF2A" d="M100.48,62.26c0,9.58-7.79,17.37-17.37,17.37c-9.58,0-17.38-7.79-17.38-17.37c0-0.09,0-0.17,0.01-0.26
	c0.13-9.46,7.88-17.12,17.37-17.12c8.96,0,16.35,6.82,17.27,15.54C100.45,61.02,100.48,61.64,100.48,62.26z"/>
</svg>
