<?xml version="1.0" encoding="utf-8"?>
<!-- Generator: Adobe Illustrator 17.0.0, SVG Export Plug-In . SVG Version: 6.00 Build 0)  -->
<!DOCTYPE svg PUBLIC "-//W3C//DTD SVG 1.1//EN" "http://www.w3.org/Graphics/SVG/1.1/DTD/svg11.dtd">
<svg version="1.1" id="Layer_1" xmlns="http://www.w3.org/2000/svg" xmlns:xlink="http://www.w3.org/1999/xlink" x="0px" y="0px"
	 width="16px" height="16px" viewBox="0 0 16 16" enable-background="new 0 0 16 16" xml:space="preserve">
<g>
	<g>
		<path d="M15.999,2.238V8.63c0,0.088-0.008,0.175-0.023,0.26c-0.519-1.32-1.808-2.257-3.31-2.257c-1.949,0-3.539,1.576-3.559,3.521
			H6.916c-0.02-1.945-1.61-3.521-3.559-3.521c-1.512,0-2.806,0.949-3.32,2.281C0.02,8.822,0.01,8.727,0.01,8.63V2.237
			c0-0.842,0.682-1.524,1.524-1.524h12.94C15.317,0.713,15.999,1.395,15.999,2.238z"/>
		<path d="M6.004,10.194c0,1.459-1.188,2.645-2.647,2.645s-2.645-1.186-2.645-2.645c0-0.091,0.005-0.183,0.014-0.271
			C0.863,8.59,1.99,7.547,3.357,7.547c1.445,0,2.625,1.166,2.645,2.607C6.004,10.168,6.004,10.18,6.004,10.194z"/>
		<path d="M15.311,10.194c0,1.459-1.186,2.645-2.645,2.645s-2.647-1.186-2.647-2.645c0-0.014,0-0.026,0.002-0.04
			c0.02-1.441,1.2-2.607,2.645-2.607c1.364,0,2.49,1.039,2.63,2.366C15.307,10.005,15.311,10.099,15.311,10.194z"/>
	</g>
</g>
</svg>
